<svg fill="none" height="100%" width="100%" viewBox="0 0 1080 1080" xmlns:xlink="http://www.w3.org/1999/xlink" xmlns="http://www.w3.org/2000/svg"><g transform="matrix(1.43,0,0,1.43,593.392,508.25)" opacity="0.4" id="i0"><g id="i1"><path fill="#000000" d="M-18.356,292.476C-18.356,292.476,-368.351,89.822,-368.351,89.822C-368.351,89.822,-99.93,-64.83,-99.93,-64.83C-99.93,-64.83,250.065,137.824,250.065,137.824C250.065,137.824,-18.356,292.476,-18.356,292.476ZM-360.106,89.831C-360.106,89.831,-18.348,287.714,-18.348,287.714C-18.348,287.714,241.82,137.815,241.82,137.815C241.82,137.815,-99.938,-60.068,-99.938,-60.068C-99.938,-60.068,-360.106,89.831,-360.106,89.831Z" /></g></g><g id="i2"><g transform="translate(450.035,418.517)"><animateTransform repeatCount="indefinite" type="translate" attributeName="transform" dur="5.042s" begin="0s" calcMode="spline" values="450.035 418.517; 72.157 636.95; 567.295 924.022; 756.77 813.912; 945.172 704.875; 450.035 418.517; 450.035 418.517" keyTimes="0; 0.214537; 0.495868; 0.603587; 0.710586; 0.991736; 1" keySplines="0 0 1 1; 0 0 1 1; 0 0 1 1; 0 0 1 1; 0 0 1 1; 0 0 1 1" fill="freeze" /><g transform="scale(1.43,1.43) translate(-243.5,-136.5)"><g id="i3" transform="matrix(1.65,0,0,1.65,243.5,136.5)" opacity="0.99"><path fill="#772eff" d="M11.244,6.491C5.034,10.076,-5.033,10.076,-11.243,6.491C-17.453,2.906,-17.453,-2.906,-11.243,-6.491C-5.033,-10.076,5.033,-10.076,11.243,-6.491C17.453,-2.906,17.454,2.906,11.244,6.491Z" /></g></g></g></g><g id="i4"><g transform="translate(561.375,489.474)"><animateTransform repeatCount="indefinite" type="translate" attributeName="transform" dur="5.042s" begin="0s" calcMode="spline" values="561.375 489.474; 561.375 466.594; 561.375 466.594; 561.375 489.474; 561.375 489.474; 561.375 466.594; 561.375 466.594; 561.375 489.474; 561.375 489.474" keyTimes="0; 0.165289; 0.247934; 0.413223; 0.495868; 0.661157; 0.743802; 0.909091; 1" keySplines="0.67 0 0.33 1; 0 0 1 1; 0.67 0 0.33 1; 0 0 1 1; 0.67 0 0.33 1; 0 0 1 1; 0.67 0 0.33 1; 0 0 1 1" fill="freeze" /><g transform="scale(1.43,1.43) translate(-517.61,-526.87)"><g id="i5" transform="matrix(1,0,0,1,621.441,464.067)"><path fill="#000000" d="M144.661,-45.624C144.661,-45.624,-100.427,-187.125,-100.427,-187.125C-103.273,-188.768,-106.165,-189.022,-108.731,-188.143C-108.731,-188.143,-108.716,-188.169,-108.716,-188.169C-108.716,-188.169,-109.161,-188.001,-109.161,-188.001C-109.197,-187.986,-109.234,-187.975,-109.27,-187.96C-109.27,-187.96,-118.127,-184.57,-118.127,-184.57C-118.127,-184.57,-110.177,-180.678,-110.177,-180.678C-110.213,-180.531,-110.259,-180.394,-110.292,-180.245C-110.292,-180.245,-153.597,16.693,-153.597,16.693C-155.595,25.787,-151.594,36.403,-144.661,40.406C-144.661,40.406,94.532,178.505,94.532,178.505C94.532,178.505,93.679,188.64,93.679,188.64C93.679,188.64,103.36,184.889,103.36,184.889C106.611,183.368,109.216,179.928,110.292,175.028C110.292,175.028,153.597,-21.91,153.597,-21.91C155.595,-31.004,151.594,-41.621,144.661,-45.624Z" /></g><g id="i6" transform="matrix(1,0,0,1,627.649,393.83)"><path fill="#8746ff" d="M138.453,24.614C138.453,24.614,-106.635,-116.888,-106.635,-116.888C-109.481,-118.531,-112.374,-118.785,-114.94,-117.906C-114.94,-117.906,-114.924,-117.931,-114.924,-117.931C-114.924,-117.931,-115.369,-117.763,-115.369,-117.763C-115.405,-117.748,-115.442,-117.737,-115.478,-117.722C-115.478,-117.722,-124.335,-114.333,-124.335,-114.333C-124.335,-114.333,-116.385,-110.441,-116.385,-110.441C-116.421,-110.294,-116.467,-110.157,-116.5,-110.008C-116.5,-110.008,-146.194,24.976,-146.194,24.976C-146.194,24.976,-26.277,118.403,-26.277,118.403C-26.277,118.403,146.194,34.38,146.194,34.38C144.568,30.169,141.87,26.586,138.453,24.614Z" /></g><g id="i7" transform="matrix(1,0,0,1,756.985,433.064)"><path fill="#513f73" d="M-0.125,13.313C-0.125,13.313,18.532,5.369,18.532,5.369C18.874,-1.856,15.884,-9.321,10.974,-13.313C10.974,-13.313,-18.559,-0.89,-18.559,-0.89C-18.559,-0.89,-0.125,13.313,-0.125,13.313Z" /></g><g id="i8" transform="matrix(1,0,0,1,609.332,466.059)"><path fill="#d9e0e6" d="M97.274,185.686C97.274,185.686,-147.813,44.185,-147.813,44.185C-154.746,40.182,-158.748,29.564,-156.75,20.47C-156.75,20.47,-113.445,-176.468,-113.445,-176.468C-111.447,-185.562,-104.207,-189.689,-97.274,-185.686C-97.274,-185.686,147.813,-44.185,147.813,-44.185C154.746,-40.182,158.748,-29.565,156.75,-20.471C156.75,-20.471,113.445,176.468,113.445,176.468C111.447,185.562,104.207,189.689,97.274,185.686Z" /></g><g id="i9" transform="matrix(1,0,0,1,636.855,465.082)"><path fill="#ffffff" d="M122.644,-44.07C122.644,-44.07,-122.444,-185.57,-122.444,-185.57C-125.803,-187.509,-129.222,-187.506,-132.094,-185.989C-129.789,-186.493,-127.277,-186.142,-124.797,-184.709C-124.797,-184.709,120.29,-43.209,120.29,-43.209C127.223,-39.206,131.225,-28.588,129.227,-19.494C129.227,-19.494,85.921,177.443,85.921,177.443C84.891,182.131,82.456,185.466,79.4,187.08C83.537,186.176,86.991,182.424,88.274,176.582C88.274,176.582,131.58,-20.355,131.58,-20.355C133.578,-29.449,129.577,-40.067,122.644,-44.07Z" /></g><g id="i10" transform="matrix(1,0,0,1,609.311,465.9)"><path fill="#ffffff" d="M91.982,172.329C91.982,172.329,-138.518,39.315,-138.518,39.315C-144.863,35.652,-148.523,25.936,-146.695,17.614C-146.695,17.614,-106.78,-163.893,-106.78,-163.893C-104.952,-172.214,-98.327,-175.991,-91.982,-172.328C-91.982,-172.328,138.518,-39.315,138.518,-39.315C144.862,-35.652,148.523,-25.936,146.695,-17.614C146.695,-17.614,106.78,163.893,106.78,163.893C104.952,172.215,98.326,175.992,91.982,172.329Z" /></g><g id="i11" transform="matrix(1,0,0,1,609.311,465.9)"><path fill="#000000" d="M91.982,172.329C91.982,172.329,-138.518,39.315,-138.518,39.315C-144.863,35.652,-148.523,25.936,-146.695,17.614C-146.695,17.614,-106.78,-163.893,-106.78,-163.893C-104.952,-172.214,-98.327,-175.991,-91.982,-172.328C-91.982,-172.328,138.518,-39.315,138.518,-39.315C144.862,-35.652,148.523,-25.936,146.695,-17.614C146.695,-17.614,106.78,163.893,106.78,163.893C104.952,172.215,98.326,175.992,91.982,172.329Z" /></g><g id="i12" transform="matrix(1,0,0,1,586.214,466.028)"><path fill="#a1adb7" d="M117.088,171.382C117.088,171.382,-113.412,38.368,-113.412,38.368C-119.756,34.706,-123.417,24.99,-121.589,16.669C-121.589,16.669,-81.674,-164.839,-81.674,-164.839C-80.749,-169.05,-78.59,-172.083,-75.866,-173.592C-79.52,-172.652,-82.54,-169.227,-83.683,-164.022C-83.683,-164.022,-123.598,17.485,-123.598,17.485C-125.426,25.807,-121.766,35.523,-115.421,39.186C-115.421,39.186,115.079,172.2,115.079,172.2C118.212,174.01,121.41,173.99,124.068,172.518C121.879,173.083,119.464,172.754,117.088,171.382Z" /></g><g id="i13" transform="matrix(1,0,0,1,484.837,652.118)"><path fill="#000000" d="M225.153,5.789C225.153,5.789,191.651,1.365,191.651,1.365C191.651,1.365,-24.609,-123.493,-24.609,-123.493C-31.542,-127.496,-43.653,-126.994,-51.659,-122.372C-51.659,-122.372,-204.9,-33.93,-204.9,-33.93C-204.9,-33.93,-225.158,-36.605,-225.158,-36.605C-225.158,-36.605,-225.158,-25.111,-225.158,-25.111C-225.158,-25.111,-225.138,-25.108,-225.138,-25.108C-225.27,-22.452,-223.758,-19.897,-220.487,-18.008C-220.487,-18.008,24.6,123.493,24.6,123.493C31.533,127.496,43.643,126.994,51.649,122.372C51.649,122.372,218.535,26.052,218.535,26.052C223.039,23.452,225.284,20.102,225.153,16.956C225.153,16.956,225.153,16.956,225.153,16.956C225.153,16.956,225.153,5.789,225.153,5.789Z" /></g><g id="i14" transform="matrix(1,0,0,1,403.588,674.221)"><path fill="#8746ff" d="M143.91,-95.209C143.91,-95.209,128.545,-104.08,128.545,-104.08C128.545,-104.08,-40.376,-104.08,-40.376,-104.08C-40.376,-104.08,-123.652,-56.033,-123.652,-56.033C-123.652,-56.033,-143.91,-58.708,-143.91,-58.708C-143.91,-58.708,-143.91,-47.214,-143.91,-47.214C-143.91,-47.214,-143.89,-47.211,-143.89,-47.211C-144.022,-44.555,-142.51,-42,-139.239,-40.111C-139.239,-40.111,105.848,101.39,105.848,101.39C109.512,103.505,114.622,104.35,119.808,104.006C119.808,104.006,143.91,-95.209,143.91,-95.209Z" /></g><g id="i15" transform="matrix(1,0,0,1,264.173,626.059)"><path fill="#a1adb7" d="M4.495,-9.358C4.495,-9.358,-4.495,-10.545,-4.495,-10.545C-4.495,-10.545,-4.495,0.949,-4.495,0.949C-4.495,0.949,-4.475,0.952,-4.475,0.952C-4.607,3.608,-3.095,6.163,0.176,8.052C0.176,8.052,4.495,10.545,4.495,10.545C4.495,10.545,4.495,-9.358,4.495,-9.358Z" /></g><g id="i16" transform="matrix(1,0,0,1,523.396,764)"><path fill="#513f73" d="M-11.492,12.758C-4.921,15.25,4.477,14.708,11.492,11.331C11.492,11.331,11.492,-14.307,11.492,-14.307C11.492,-14.307,-11.492,-14.307,-11.492,-14.307C-11.492,-14.307,-11.492,12.758,-11.492,12.758Z" /></g><g id="i17" transform="matrix(1,0,0,1,484.832,636.851)"><path fill="#d9e0e6" d="M24.605,127.28C24.605,127.28,-220.482,-14.222,-220.482,-14.222C-227.415,-18.225,-226.545,-25.217,-218.54,-29.839C-218.54,-29.839,-51.654,-126.158,-51.654,-126.158C-43.648,-130.78,-31.538,-131.282,-24.605,-127.279C-24.605,-127.279,220.482,14.222,220.482,14.222C227.415,18.225,226.546,25.217,218.54,29.839C218.54,29.839,51.654,126.158,51.654,126.158C43.648,130.78,31.538,131.283,24.605,127.28Z" /></g><g id="i18" transform="matrix(1,0,0,1,484.831,690.275)"><path fill="#ffffff" d="M218.54,-27.783C218.54,-27.783,51.655,68.536,51.655,68.536C43.649,73.158,31.538,73.66,24.605,69.658C24.605,69.658,-220.482,-71.843,-220.482,-71.843C-222.755,-73.155,-224.173,-74.791,-224.792,-76.558C-225.877,-73.278,-224.494,-69.963,-220.482,-67.645C-220.482,-67.645,24.605,73.856,24.605,73.856C31.538,77.859,43.649,77.357,51.655,72.735C51.655,72.735,218.54,-23.585,218.54,-23.585C223.921,-26.692,226.062,-30.866,224.793,-34.487C224.004,-32.098,221.913,-29.73,218.54,-27.783Z" /></g><g id="i19" transform="matrix(1,0,0,1,0,0)"><g id="i20" transform="matrix(1,0,0,1,371.45,567.73)"><path fill="#a1adb7" d="M-2.861,8.055C-2.861,8.055,-13.951,1.652,-13.951,1.652C-14.841,1.138,-14.729,0.24,-13.701,-0.354C-13.701,-0.354,-0.612,-7.911,-0.612,-7.911C0.416,-8.505,1.972,-8.568,2.862,-8.054C2.862,-8.054,13.95,-1.652,13.95,-1.652C14.841,-1.138,14.729,-0.24,13.701,0.354C13.701,0.354,0.612,7.91,0.612,7.91C-0.416,8.504,-1.971,8.569,-2.861,8.055Z" /></g><g id="i21" transform="matrix(1,0,0,1,388.575,577.617)"><path fill="#a1adb7" d="M-2.861,8.055C-2.861,8.055,-13.951,1.652,-13.951,1.652C-14.841,1.138,-14.729,0.24,-13.701,-0.354C-13.701,-0.354,-0.612,-7.911,-0.612,-7.911C0.416,-8.505,1.971,-8.568,2.861,-8.054C2.861,-8.054,13.951,-1.652,13.951,-1.652C14.841,-1.138,14.729,-0.24,13.701,0.354C13.701,0.354,0.612,7.91,0.612,7.91C-0.416,8.504,-1.971,8.569,-2.861,8.055Z" /></g><g id="i22" transform="matrix(1,0,0,1,405.7,587.504)"><path fill="#a1adb7" d="M-2.862,8.054C-2.862,8.054,-13.951,1.652,-13.951,1.652C-14.841,1.138,-14.729,0.24,-13.701,-0.354C-13.701,-0.354,-0.612,-7.911,-0.612,-7.911C0.416,-8.505,1.971,-8.568,2.861,-8.054C2.861,-8.054,13.951,-1.652,13.951,-1.652C14.841,-1.138,14.729,-0.241,13.701,0.353C13.701,0.353,0.612,7.91,0.612,7.91C-0.416,8.504,-1.971,8.568,-2.862,8.054Z" /></g><g id="i23" transform="matrix(1,0,0,1,428.334,579.946)"><path fill="#a1adb7" d="M-1.811,7.448C-1.811,7.448,-12.9,1.046,-12.9,1.046C-13.79,0.532,-13.679,-0.366,-12.651,-0.96C-12.651,-0.96,-1.663,-7.304,-1.663,-7.304C-0.635,-7.898,0.921,-7.962,1.811,-7.448C1.811,-7.448,12.9,-1.045,12.9,-1.045C13.79,-0.531,13.678,0.366,12.65,0.96C12.65,0.96,1.663,7.304,1.663,7.304C0.635,7.898,-0.92,7.962,-1.811,7.448Z" /></g><g id="i24" transform="matrix(1,0,0,1,445.459,589.833)"><path fill="#a1adb7" d="M-1.811,7.448C-1.811,7.448,-12.9,1.046,-12.9,1.046C-13.79,0.532,-13.678,-0.366,-12.65,-0.96C-12.65,-0.96,-1.663,-7.304,-1.663,-7.304C-0.635,-7.898,0.921,-7.962,1.811,-7.448C1.811,-7.448,12.9,-1.045,12.9,-1.045C13.791,-0.531,13.679,0.366,12.651,0.96C12.651,0.96,1.663,7.304,1.663,7.304C0.635,7.898,-0.921,7.962,-1.811,7.448Z" /></g><g id="i25" transform="matrix(1,0,0,1,462.584,599.72)"><path fill="#a1adb7" d="M-1.811,7.448C-1.811,7.448,-12.9,1.046,-12.9,1.046C-13.79,0.532,-13.679,-0.366,-12.651,-0.96C-12.651,-0.96,-1.663,-7.304,-1.663,-7.304C-0.635,-7.898,0.921,-7.962,1.811,-7.448C1.811,-7.448,12.9,-1.045,12.9,-1.045C13.79,-0.531,13.678,0.366,12.65,0.96C12.65,0.96,1.663,7.304,1.663,7.304C0.635,7.898,-0.921,7.962,-1.811,7.448Z" /></g><g id="i26" transform="matrix(1,0,0,1,479.709,609.607)"><path fill="#a1adb7" d="M-1.811,7.448C-1.811,7.448,-12.9,1.046,-12.9,1.046C-13.79,0.532,-13.678,-0.366,-12.65,-0.96C-12.65,-0.96,-1.663,-7.304,-1.663,-7.304C-0.635,-7.898,0.921,-7.962,1.811,-7.448C1.811,-7.448,12.9,-1.045,12.9,-1.045C13.79,-0.531,13.679,0.366,12.651,0.96C12.651,0.96,1.663,7.304,1.663,7.304C0.635,7.898,-0.921,7.962,-1.811,7.448Z" /></g><g id="i27" transform="matrix(1,0,0,1,496.834,619.494)"><path fill="#a1adb7" d="M-1.811,7.448C-1.811,7.448,-12.9,1.045,-12.9,1.045C-13.79,0.531,-13.678,-0.366,-12.65,-0.96C-12.65,-0.96,-1.663,-7.304,-1.663,-7.304C-0.635,-7.898,0.921,-7.962,1.811,-7.448C1.811,-7.448,12.9,-1.045,12.9,-1.045C13.79,-0.531,13.679,0.366,12.651,0.96C12.651,0.96,1.663,7.304,1.663,7.304C0.635,7.898,-0.921,7.962,-1.811,7.448Z" /></g><g id="i28" transform="matrix(1,0,0,1,513.96,629.382)"><path fill="#a1adb7" d="M-1.811,7.448C-1.811,7.448,-12.9,1.045,-12.9,1.045C-13.79,0.531,-13.679,-0.366,-12.651,-0.96C-12.651,-0.96,-1.663,-7.304,-1.663,-7.304C-0.635,-7.898,0.921,-7.962,1.811,-7.448C1.811,-7.448,12.9,-1.045,12.9,-1.045C13.79,-0.531,13.678,0.366,12.65,0.96C12.65,0.96,1.663,7.304,1.663,7.304C0.635,7.898,-0.92,7.962,-1.811,7.448Z" /></g><g id="i29" transform="matrix(1,0,0,1,531.085,639.269)"><path fill="#a1adb7" d="M-1.811,7.448C-1.811,7.448,-12.9,1.045,-12.9,1.045C-13.79,0.531,-13.678,-0.366,-12.65,-0.96C-12.65,-0.96,-1.663,-7.304,-1.663,-7.304C-0.635,-7.898,0.921,-7.962,1.811,-7.448C1.811,-7.448,12.9,-1.045,12.9,-1.045C13.791,-0.531,13.679,0.366,12.651,0.96C12.651,0.96,1.663,7.304,1.663,7.304C0.635,7.898,-0.921,7.962,-1.811,7.448Z" /></g><g id="i30" transform="matrix(1,0,0,1,548.21,649.156)"><path fill="#a1adb7" d="M-1.811,7.448C-1.811,7.448,-12.9,1.045,-12.9,1.045C-13.79,0.531,-13.679,-0.366,-12.651,-0.96C-12.651,-0.96,-1.663,-7.304,-1.663,-7.304C-0.635,-7.898,0.921,-7.962,1.811,-7.448C1.811,-7.448,12.9,-1.045,12.9,-1.045C13.79,-0.531,13.678,0.366,12.65,0.96C12.65,0.96,1.663,7.304,1.663,7.304C0.635,7.898,-0.921,7.962,-1.811,7.448Z" /></g><g id="i31" transform="matrix(1,0,0,1,565.335,659.043)"><path fill="#a1adb7" d="M-1.811,7.448C-1.811,7.448,-12.9,1.045,-12.9,1.045C-13.79,0.531,-13.679,-0.366,-12.651,-0.96C-12.651,-0.96,-1.663,-7.304,-1.663,-7.304C-0.635,-7.898,0.921,-7.962,1.811,-7.448C1.811,-7.448,12.9,-1.045,12.9,-1.045C13.79,-0.531,13.679,0.366,12.651,0.96C12.651,0.96,1.663,7.304,1.663,7.304C0.635,7.898,-0.921,7.962,-1.811,7.448Z" /></g><g id="i32" transform="matrix(1,0,0,1,582.46,668.93)"><path fill="#a1adb7" d="M-1.811,7.448C-1.811,7.448,-12.9,1.045,-12.9,1.045C-13.79,0.531,-13.678,-0.366,-12.65,-0.96C-12.65,-0.96,-1.663,-7.304,-1.663,-7.304C-0.635,-7.898,0.921,-7.962,1.811,-7.448C1.811,-7.448,12.9,-1.046,12.9,-1.046C13.79,-0.532,13.679,0.366,12.651,0.96C12.651,0.96,1.663,7.304,1.663,7.304C0.635,7.898,-0.921,7.962,-1.811,7.448Z" /></g><g id="i33" transform="matrix(1,0,0,1,453.567,575.265)"><path fill="#a1adb7" d="M-1.811,7.448C-1.811,7.448,-12.9,1.045,-12.9,1.045C-13.79,0.531,-13.678,-0.366,-12.65,-0.96C-12.65,-0.96,-1.663,-7.304,-1.663,-7.304C-0.635,-7.898,0.921,-7.962,1.811,-7.448C1.811,-7.448,12.9,-1.046,12.9,-1.046C13.79,-0.532,13.679,0.366,12.651,0.96C12.651,0.96,1.663,7.304,1.663,7.304C0.635,7.898,-0.921,7.962,-1.811,7.448Z" /></g><g id="i34" transform="matrix(1,0,0,1,436.186,565.23)"><path fill="#a1adb7" d="M-1.811,7.448C-1.811,7.448,-12.9,1.046,-12.9,1.046C-13.79,0.532,-13.679,-0.366,-12.651,-0.96C-12.651,-0.96,-1.663,-7.304,-1.663,-7.304C-0.635,-7.898,0.921,-7.962,1.811,-7.448C1.811,-7.448,12.9,-1.045,12.9,-1.045C13.79,-0.531,13.678,0.366,12.65,0.96C12.65,0.96,1.663,7.304,1.663,7.304C0.635,7.898,-0.92,7.962,-1.811,7.448Z" /></g><g id="i35" transform="matrix(1,0,0,1,412.38,551.486)"><path fill="#a1adb7" d="M4.586,11.141C4.586,11.141,-19.297,-2.648,-19.297,-2.648C-20.187,-3.162,-20.075,-4.059,-19.047,-4.653C-19.047,-4.653,-8.06,-10.997,-8.06,-10.997C-7.032,-11.591,-5.477,-11.655,-4.587,-11.141C-4.587,-11.141,19.297,2.648,19.297,2.648C20.187,3.162,20.075,4.059,19.047,4.653C19.047,4.653,8.06,10.997,8.06,10.997C7.032,11.591,5.476,11.655,4.586,11.141Z" /></g><g id="i36" transform="matrix(1,0,0,1,426.8,540.562)"><path fill="#a1adb7" d="M2.336,9.842C2.336,9.842,-17.046,-1.349,-17.046,-1.349C-17.936,-1.863,-17.825,-2.76,-16.797,-3.354C-16.797,-3.354,-5.809,-9.698,-5.809,-9.698C-4.781,-10.292,-3.226,-10.356,-2.336,-9.842C-2.336,-9.842,17.046,1.348,17.046,1.348C17.936,1.862,17.825,2.76,16.797,3.354C16.797,3.354,5.809,9.698,5.809,9.698C4.781,10.292,3.226,10.356,2.336,9.842Z" /></g><g id="i37" transform="matrix(1,0,0,1,470.692,585.152)"><path fill="#a1adb7" d="M-1.811,7.448C-1.811,7.448,-12.9,1.045,-12.9,1.045C-13.79,0.531,-13.678,-0.366,-12.65,-0.96C-12.65,-0.96,-1.663,-7.304,-1.663,-7.304C-0.635,-7.898,0.921,-7.962,1.811,-7.448C1.811,-7.448,12.9,-1.046,12.9,-1.046C13.79,-0.532,13.679,0.366,12.651,0.96C12.651,0.96,1.663,7.304,1.663,7.304C0.635,7.898,-0.921,7.962,-1.811,7.448Z" /></g><g id="i38" transform="matrix(1,0,0,1,487.817,595.039)"><path fill="#a1adb7" d="M-1.811,7.448C-1.811,7.448,-12.9,1.045,-12.9,1.045C-13.79,0.531,-13.679,-0.366,-12.651,-0.96C-12.651,-0.96,-1.663,-7.304,-1.663,-7.304C-0.635,-7.898,0.921,-7.962,1.811,-7.448C1.811,-7.448,12.9,-1.046,12.9,-1.046C13.79,-0.532,13.678,0.366,12.65,0.96C12.65,0.96,1.663,7.304,1.663,7.304C0.635,7.898,-0.92,7.962,-1.811,7.448Z" /></g><g id="i39" transform="matrix(1,0,0,1,504.942,604.926)"><path fill="#a1adb7" d="M-1.811,7.448C-1.811,7.448,-12.9,1.045,-12.9,1.045C-13.79,0.531,-13.678,-0.366,-12.65,-0.96C-12.65,-0.96,-1.663,-7.304,-1.663,-7.304C-0.635,-7.898,0.921,-7.962,1.811,-7.448C1.811,-7.448,12.9,-1.046,12.9,-1.046C13.791,-0.532,13.679,0.366,12.651,0.96C12.651,0.96,1.663,7.304,1.663,7.304C0.635,7.898,-0.921,7.962,-1.811,7.448Z" /></g><g id="i40" transform="matrix(1,0,0,1,522.067,614.813)"><path fill="#a1adb7" d="M-1.811,7.448C-1.811,7.448,-12.9,1.046,-12.9,1.046C-13.79,0.532,-13.679,-0.366,-12.651,-0.96C-12.651,-0.96,-1.663,-7.304,-1.663,-7.304C-0.635,-7.898,0.921,-7.962,1.811,-7.448C1.811,-7.448,12.9,-1.045,12.9,-1.045C13.79,-0.531,13.678,0.366,12.65,0.96C12.65,0.96,1.663,7.304,1.663,7.304C0.635,7.898,-0.921,7.962,-1.811,7.448Z" /></g><g id="i41" transform="matrix(1,0,0,1,539.192,624.701)"><path fill="#a1adb7" d="M-1.811,7.448C-1.811,7.448,-12.9,1.046,-12.9,1.046C-13.79,0.532,-13.678,-0.366,-12.65,-0.96C-12.65,-0.96,-1.663,-7.304,-1.663,-7.304C-0.635,-7.898,0.921,-7.962,1.811,-7.448C1.811,-7.448,12.9,-1.045,12.9,-1.045C13.79,-0.531,13.679,0.366,12.651,0.96C12.651,0.96,1.663,7.304,1.663,7.304C0.635,7.898,-0.921,7.962,-1.811,7.448Z" /></g><g id="i42" transform="matrix(1,0,0,1,556.317,634.588)"><path fill="#a1adb7" d="M-1.811,7.448C-1.811,7.448,-12.9,1.046,-12.9,1.046C-13.79,0.532,-13.678,-0.366,-12.65,-0.96C-12.65,-0.96,-1.663,-7.304,-1.663,-7.304C-0.635,-7.898,0.921,-7.962,1.811,-7.448C1.811,-7.448,12.9,-1.045,12.9,-1.045C13.79,-0.531,13.679,0.366,12.651,0.96C12.651,0.96,1.663,7.304,1.663,7.304C0.635,7.898,-0.921,7.962,-1.811,7.448Z" /></g><g id="i43" transform="matrix(1,0,0,1,573.442,644.475)"><path fill="#a1adb7" d="M-1.811,7.448C-1.811,7.448,-12.9,1.046,-12.9,1.046C-13.79,0.532,-13.679,-0.366,-12.651,-0.96C-12.651,-0.96,-1.663,-7.304,-1.663,-7.304C-0.635,-7.898,0.921,-7.962,1.811,-7.448C1.811,-7.448,12.9,-1.045,12.9,-1.045C13.79,-0.531,13.678,0.366,12.65,0.96C12.65,0.96,1.663,7.304,1.663,7.304C0.635,7.898,-0.92,7.962,-1.811,7.448Z" /></g><g id="i44" transform="matrix(1,0,0,1,590.567,654.362)"><path fill="#a1adb7" d="M-1.811,7.448C-1.811,7.448,-12.9,1.046,-12.9,1.046C-13.79,0.532,-13.678,-0.366,-12.65,-0.96C-12.65,-0.96,-1.663,-7.304,-1.663,-7.304C-0.635,-7.898,0.921,-7.962,1.811,-7.448C1.811,-7.448,12.9,-1.045,12.9,-1.045C13.791,-0.531,13.679,0.366,12.651,0.96C12.651,0.96,1.663,7.304,1.663,7.304C0.635,7.898,-0.921,7.962,-1.811,7.448Z" /></g><g id="i45" transform="matrix(1,0,0,1,607.693,664.249)"><path fill="#a1adb7" d="M-1.811,7.448C-1.811,7.448,-12.9,1.046,-12.9,1.046C-13.79,0.532,-13.679,-0.366,-12.651,-0.96C-12.651,-0.96,-1.663,-7.304,-1.663,-7.304C-0.635,-7.898,0.921,-7.962,1.811,-7.448C1.811,-7.448,12.9,-1.045,12.9,-1.045C13.79,-0.531,13.678,0.366,12.65,0.96C12.65,0.96,1.663,7.304,1.663,7.304C0.635,7.898,-0.921,7.962,-1.811,7.448Z" /></g><g id="i46" transform="matrix(1,0,0,1,631.584,678.043)"><path fill="#a1adb7" d="M4.743,11.231C4.743,11.231,-19.453,-2.738,-19.453,-2.738C-20.343,-3.252,-20.232,-4.15,-19.204,-4.744C-19.204,-4.744,-8.216,-11.087,-8.216,-11.087C-7.188,-11.681,-5.632,-11.745,-4.742,-11.231C-4.742,-11.231,19.453,2.738,19.453,2.738C20.343,3.252,20.232,4.15,19.204,4.744C19.204,4.744,8.216,11.087,8.216,11.087C7.188,11.681,5.633,11.745,4.743,11.231Z" /></g><g id="i47" transform="matrix(1,0,0,1,666.811,659.883)"><path fill="#a1adb7" d="M2.856,10.142C2.856,10.142,-17.566,-1.649,-17.566,-1.649C-18.456,-2.163,-18.345,-3.06,-17.317,-3.654C-17.317,-3.654,-6.33,-9.998,-6.33,-9.998C-5.302,-10.592,-3.746,-10.656,-2.856,-10.142C-2.856,-10.142,17.566,1.649,17.566,1.649C18.456,2.163,18.345,3.06,17.317,3.654C17.317,3.654,6.329,9.998,6.329,9.998C5.301,10.592,3.746,10.656,2.856,10.142Z" /></g><g id="i48" transform="matrix(1,0,0,1,500.682,583.217)"><path fill="#a1adb7" d="M-1.811,7.448C-1.811,7.448,-12.9,1.045,-12.9,1.045C-13.79,0.531,-13.679,-0.366,-12.651,-0.96C-12.651,-0.96,-1.663,-7.304,-1.663,-7.304C-0.635,-7.898,0.921,-7.962,1.811,-7.448C1.811,-7.448,12.9,-1.046,12.9,-1.046C13.79,-0.532,13.678,0.366,12.65,0.96C12.65,0.96,1.663,7.304,1.663,7.304C0.635,7.898,-0.921,7.962,-1.811,7.448Z" /></g><g id="i49" transform="matrix(1,0,0,1,483.131,573.084)"><path fill="#a1adb7" d="M-1.811,7.448C-1.811,7.448,-12.9,1.045,-12.9,1.045C-13.79,0.531,-13.679,-0.366,-12.651,-0.96C-12.651,-0.96,-1.663,-7.304,-1.663,-7.304C-0.635,-7.898,0.921,-7.962,1.811,-7.448C1.811,-7.448,12.9,-1.046,12.9,-1.046C13.79,-0.532,13.678,0.366,12.65,0.96C12.65,0.96,1.663,7.304,1.663,7.304C0.635,7.898,-0.921,7.962,-1.811,7.448Z" /></g><g id="i50" transform="matrix(1,0,0,1,465.579,562.951)"><path fill="#a1adb7" d="M-1.811,7.448C-1.811,7.448,-12.9,1.045,-12.9,1.045C-13.79,0.531,-13.678,-0.366,-12.65,-0.96C-12.65,-0.96,-1.663,-7.304,-1.663,-7.304C-0.635,-7.898,0.92,-7.962,1.811,-7.448C1.811,-7.448,12.9,-1.045,12.9,-1.045C13.79,-0.531,13.679,0.366,12.651,0.96C12.651,0.96,1.663,7.304,1.663,7.304C0.635,7.898,-0.921,7.962,-1.811,7.448Z" /></g><g id="i51" transform="matrix(1,0,0,1,448.028,552.818)"><path fill="#a1adb7" d="M-1.811,7.448C-1.811,7.448,-12.9,1.046,-12.9,1.046C-13.79,0.532,-13.678,-0.366,-12.65,-0.96C-12.65,-0.96,-1.663,-7.304,-1.663,-7.304C-0.635,-7.898,0.921,-7.962,1.811,-7.448C1.811,-7.448,12.9,-1.045,12.9,-1.045C13.791,-0.531,13.679,0.366,12.651,0.96C12.651,0.96,1.663,7.304,1.663,7.304C0.635,7.898,-0.921,7.962,-1.811,7.448Z" /></g><g id="i52" transform="matrix(1,0,0,1,517.807,593.105)"><path fill="#a1adb7" d="M-1.811,7.448C-1.811,7.448,-12.9,1.045,-12.9,1.045C-13.79,0.531,-13.678,-0.366,-12.65,-0.96C-12.65,-0.96,-1.663,-7.304,-1.663,-7.304C-0.635,-7.898,0.92,-7.962,1.811,-7.448C1.811,-7.448,12.9,-1.046,12.9,-1.046C13.79,-0.532,13.679,0.366,12.651,0.96C12.651,0.96,1.663,7.304,1.663,7.304C0.635,7.898,-0.921,7.962,-1.811,7.448Z" /></g><g id="i53" transform="matrix(1,0,0,1,534.932,602.992)"><path fill="#a1adb7" d="M-1.811,7.448C-1.811,7.448,-12.9,1.045,-12.9,1.045C-13.79,0.531,-13.679,-0.366,-12.651,-0.96C-12.651,-0.96,-1.663,-7.304,-1.663,-7.304C-0.635,-7.898,0.921,-7.962,1.811,-7.448C1.811,-7.448,12.9,-1.046,12.9,-1.046C13.79,-0.532,13.678,0.366,12.65,0.96C12.65,0.96,1.663,7.304,1.663,7.304C0.635,7.898,-0.921,7.962,-1.811,7.448Z" /></g><g id="i54" transform="matrix(1,0,0,1,552.057,612.879)"><path fill="#a1adb7" d="M-1.811,7.448C-1.811,7.448,-12.9,1.046,-12.9,1.046C-13.79,0.532,-13.679,-0.366,-12.651,-0.96C-12.651,-0.96,-1.663,-7.304,-1.663,-7.304C-0.635,-7.898,0.921,-7.962,1.811,-7.448C1.811,-7.448,12.9,-1.045,12.9,-1.045C13.79,-0.531,13.679,0.366,12.651,0.96C12.651,0.96,1.663,7.304,1.663,7.304C0.635,7.898,-0.921,7.962,-1.811,7.448Z" /></g><g id="i55" transform="matrix(1,0,0,1,569.182,622.766)"><path fill="#a1adb7" d="M-1.811,7.448C-1.811,7.448,-12.9,1.046,-12.9,1.046C-13.79,0.532,-13.678,-0.366,-12.65,-0.96C-12.65,-0.96,-1.663,-7.304,-1.663,-7.304C-0.635,-7.898,0.921,-7.962,1.811,-7.448C1.811,-7.448,12.9,-1.045,12.9,-1.045C13.79,-0.531,13.679,0.366,12.651,0.96C12.651,0.96,1.663,7.304,1.663,7.304C0.635,7.898,-0.921,7.962,-1.811,7.448Z" /></g><g id="i56" transform="matrix(1,0,0,1,586.307,632.653)"><path fill="#a1adb7" d="M-1.811,7.448C-1.811,7.448,-12.9,1.046,-12.9,1.046C-13.791,0.532,-13.679,-0.366,-12.651,-0.96C-12.651,-0.96,-1.663,-7.304,-1.663,-7.304C-0.635,-7.898,0.921,-7.962,1.811,-7.448C1.811,-7.448,12.9,-1.045,12.9,-1.045C13.79,-0.531,13.678,0.366,12.65,0.96C12.65,0.96,1.663,7.304,1.663,7.304C0.635,7.898,-0.921,7.962,-1.811,7.448Z" /></g><g id="i57" transform="matrix(1,0,0,1,603.432,642.54)"><path fill="#a1adb7" d="M-1.811,7.448C-1.811,7.448,-12.9,1.046,-12.9,1.046C-13.79,0.532,-13.678,-0.366,-12.65,-0.96C-12.65,-0.96,-1.663,-7.304,-1.663,-7.304C-0.635,-7.898,0.92,-7.962,1.811,-7.448C1.811,-7.448,12.9,-1.045,12.9,-1.045C13.79,-0.531,13.679,0.366,12.651,0.96C12.651,0.96,1.663,7.304,1.663,7.304C0.635,7.898,-0.921,7.962,-1.811,7.448Z" /></g><g id="i58" transform="matrix(1,0,0,1,620.557,652.428)"><path fill="#a1adb7" d="M-1.811,7.448C-1.811,7.448,-12.9,1.046,-12.9,1.046C-13.79,0.532,-13.679,-0.366,-12.651,-0.96C-12.651,-0.96,-1.663,-7.304,-1.663,-7.304C-0.635,-7.898,0.921,-7.962,1.811,-7.448C1.811,-7.448,12.9,-1.045,12.9,-1.045C13.79,-0.531,13.678,0.366,12.65,0.96C12.65,0.96,1.663,7.304,1.663,7.304C0.635,7.898,-0.921,7.962,-1.811,7.448Z" /></g><g id="i59" transform="matrix(1,0,0,1,637.682,662.315)"><path fill="#a1adb7" d="M-1.81,7.448C-1.81,7.448,-12.9,1.046,-12.9,1.046C-13.79,0.532,-13.679,-0.366,-12.651,-0.96C-12.651,-0.96,-1.663,-7.304,-1.663,-7.304C-0.635,-7.898,0.921,-7.962,1.811,-7.448C1.811,-7.448,12.9,-1.045,12.9,-1.045C13.79,-0.531,13.678,0.366,12.65,0.96C12.65,0.96,1.663,7.304,1.663,7.304C0.635,7.898,-0.92,7.962,-1.81,7.448Z" /></g><g id="i60" transform="matrix(1,0,0,1,654.807,672.202)"><path fill="#a1adb7" d="M-1.811,7.448C-1.811,7.448,-12.9,1.046,-12.9,1.046C-13.79,0.532,-13.678,-0.366,-12.65,-0.96C-12.65,-0.96,-1.663,-7.304,-1.663,-7.304C-0.635,-7.898,0.921,-7.962,1.811,-7.448C1.811,-7.448,12.9,-1.045,12.9,-1.045C13.79,-0.531,13.679,0.366,12.651,0.96C12.651,0.96,1.663,7.304,1.663,7.304C0.635,7.898,-0.921,7.962,-1.811,7.448Z" /></g><g id="i61" transform="matrix(1,0,0,1,491.664,558.762)"><path fill="#a1adb7" d="M-1.811,7.448C-1.811,7.448,-12.9,1.045,-12.9,1.045C-13.79,0.531,-13.678,-0.366,-12.65,-0.96C-12.65,-0.96,-1.663,-7.304,-1.663,-7.304C-0.635,-7.898,0.92,-7.962,1.811,-7.448C1.811,-7.448,12.9,-1.045,12.9,-1.045C13.79,-0.531,13.679,0.366,12.651,0.96C12.651,0.96,1.663,7.304,1.663,7.304C0.635,7.898,-0.921,7.962,-1.811,7.448Z" /></g><g id="i62" transform="matrix(1,0,0,1,474.624,548.924)"><path fill="#a1adb7" d="M-1.811,7.448C-1.811,7.448,-12.9,1.046,-12.9,1.046C-13.79,0.532,-13.678,-0.366,-12.65,-0.96C-12.65,-0.96,-1.663,-7.304,-1.663,-7.304C-0.635,-7.898,0.921,-7.962,1.811,-7.448C1.811,-7.448,12.9,-1.045,12.9,-1.045C13.79,-0.531,13.679,0.366,12.651,0.96C12.651,0.96,1.663,7.304,1.663,7.304C0.635,7.898,-0.921,7.962,-1.811,7.448Z" /></g><g id="i63" transform="matrix(1,0,0,1,457.584,539.086)"><path fill="#a1adb7" d="M-1.811,7.448C-1.811,7.448,-12.9,1.045,-12.9,1.045C-13.79,0.531,-13.679,-0.366,-12.651,-0.96C-12.651,-0.96,-1.663,-7.304,-1.663,-7.304C-0.635,-7.898,0.921,-7.962,1.811,-7.448C1.811,-7.448,12.9,-1.046,12.9,-1.046C13.79,-0.532,13.679,0.366,12.651,0.96C12.651,0.96,1.663,7.304,1.663,7.304C0.635,7.898,-0.921,7.962,-1.811,7.448Z" /></g><g id="i64" transform="matrix(1,0,0,1,440.545,529.248)"><path fill="#a1adb7" d="M-1.811,7.448C-1.811,7.448,-12.9,1.045,-12.9,1.045C-13.79,0.531,-13.679,-0.366,-12.651,-0.96C-12.651,-0.96,-1.663,-7.304,-1.663,-7.304C-0.635,-7.898,0.921,-7.962,1.811,-7.448C1.811,-7.448,12.9,-1.046,12.9,-1.046C13.79,-0.532,13.678,0.366,12.65,0.96C12.65,0.96,1.663,7.304,1.663,7.304C0.635,7.898,-0.92,7.962,-1.811,7.448Z" /></g><g id="i65" transform="matrix(1,0,0,1,454.389,521.255)"><path fill="#a1adb7" d="M1.867,5.324C1.867,5.324,-9.222,-1.078,-9.222,-1.078C-10.112,-1.592,-10.001,-2.489,-8.973,-3.083C-8.973,-3.083,-5.341,-5.181,-5.341,-5.181C-4.313,-5.775,-2.757,-5.838,-1.867,-5.324C-1.867,-5.324,9.222,1.078,9.222,1.078C10.112,1.592,10.001,2.489,8.973,3.083C8.973,3.083,5.341,5.18,5.341,5.18C4.313,5.774,2.757,5.838,1.867,5.324Z" /></g><g id="i66" transform="matrix(1,0,0,1,476.626,534.094)"><path fill="#a1adb7" d="M1.867,5.324C1.867,5.324,-9.222,-1.078,-9.222,-1.078C-10.112,-1.592,-10.001,-2.489,-8.973,-3.083C-8.973,-3.083,-5.341,-5.181,-5.341,-5.181C-4.313,-5.775,-2.757,-5.838,-1.867,-5.324C-1.867,-5.324,9.223,1.078,9.223,1.078C10.113,1.592,10.001,2.489,8.973,3.083C8.973,3.083,5.341,5.18,5.341,5.18C4.313,5.774,2.757,5.838,1.867,5.324Z" /></g><g id="i67" transform="matrix(1,0,0,1,493.595,543.891)"><path fill="#a1adb7" d="M1.867,5.324C1.867,5.324,-9.222,-1.078,-9.222,-1.078C-10.112,-1.592,-10.001,-2.489,-8.973,-3.083C-8.973,-3.083,-5.34,-5.18,-5.34,-5.18C-4.312,-5.774,-2.758,-5.838,-1.867,-5.324C-1.867,-5.324,9.222,1.078,9.222,1.078C10.112,1.592,10.001,2.489,8.973,3.083C8.973,3.083,5.34,5.181,5.34,5.181C4.312,5.775,2.758,5.838,1.867,5.324Z" /></g><g id="i68" transform="matrix(1,0,0,1,510.564,553.688)"><path fill="#a1adb7" d="M1.867,5.324C1.867,5.324,-9.222,-1.078,-9.222,-1.078C-10.112,-1.592,-10.001,-2.489,-8.973,-3.083C-8.973,-3.083,-5.341,-5.181,-5.341,-5.181C-4.313,-5.775,-2.757,-5.838,-1.867,-5.324C-1.867,-5.324,9.222,1.078,9.222,1.078C10.112,1.592,10.001,2.489,8.973,3.083C8.973,3.083,5.341,5.18,5.341,5.18C4.313,5.774,2.757,5.838,1.867,5.324Z" /></g><g id="i69" transform="matrix(1,0,0,1,527.533,563.485)"><path fill="#a1adb7" d="M1.867,5.324C1.867,5.324,-9.222,-1.078,-9.222,-1.078C-10.112,-1.592,-10.001,-2.489,-8.973,-3.083C-8.973,-3.083,-5.341,-5.18,-5.341,-5.18C-4.313,-5.774,-2.757,-5.838,-1.867,-5.324C-1.867,-5.324,9.222,1.078,9.222,1.078C10.112,1.592,10.001,2.489,8.973,3.083C8.973,3.083,5.341,5.181,5.341,5.181C4.313,5.775,2.757,5.838,1.867,5.324Z" /></g><g id="i70" transform="matrix(1,0,0,1,622.267,618.18)"><path fill="#a1adb7" d="M1.867,5.324C1.867,5.324,-9.222,-1.078,-9.222,-1.078C-10.112,-1.592,-10.001,-2.489,-8.973,-3.083C-8.973,-3.083,-5.341,-5.18,-5.341,-5.18C-4.313,-5.774,-2.757,-5.838,-1.867,-5.324C-1.867,-5.324,9.222,1.078,9.222,1.078C10.112,1.592,10.001,2.489,8.973,3.083C8.973,3.083,5.341,5.181,5.341,5.181C4.313,5.775,2.757,5.838,1.867,5.324Z" /></g><g id="i71" transform="matrix(1,0,0,1,639.236,627.977)"><path fill="#a1adb7" d="M1.867,5.324C1.867,5.324,-9.222,-1.078,-9.222,-1.078C-10.112,-1.592,-10.001,-2.489,-8.973,-3.083C-8.973,-3.083,-5.341,-5.181,-5.341,-5.181C-4.313,-5.775,-2.757,-5.838,-1.867,-5.324C-1.867,-5.324,9.222,1.078,9.222,1.078C10.113,1.592,10.001,2.489,8.973,3.083C8.973,3.083,5.341,5.18,5.341,5.18C4.313,5.774,2.757,5.838,1.867,5.324Z" /></g><g id="i72" transform="matrix(1,0,0,1,656.205,637.774)"><path fill="#a1adb7" d="M1.867,5.325C1.867,5.325,-9.222,-1.078,-9.222,-1.078C-10.112,-1.592,-10.001,-2.489,-8.973,-3.083C-8.973,-3.083,-5.34,-5.18,-5.34,-5.18C-4.312,-5.774,-2.757,-5.839,-1.867,-5.325C-1.867,-5.325,9.222,1.078,9.222,1.078C10.112,1.592,10.001,2.49,8.973,3.084C8.973,3.084,5.34,5.181,5.34,5.181C4.312,5.775,2.758,5.839,1.867,5.325Z" /></g><g id="i73" transform="matrix(1,0,0,1,673.174,647.57)"><path fill="#a1adb7" d="M1.867,5.324C1.867,5.324,-9.222,-1.078,-9.222,-1.078C-10.112,-1.592,-10.001,-2.489,-8.973,-3.083C-8.973,-3.083,-5.341,-5.181,-5.341,-5.181C-4.313,-5.775,-2.757,-5.838,-1.867,-5.324C-1.867,-5.324,9.222,1.078,9.222,1.078C10.112,1.592,10.001,2.489,8.973,3.083C8.973,3.083,5.341,5.18,5.341,5.18C4.313,5.774,2.757,5.838,1.867,5.324Z" /></g><g id="i74" transform="matrix(1,0,0,1,508.789,568.649)"><path fill="#a1adb7" d="M-1.811,7.448C-1.811,7.448,-12.9,1.045,-12.9,1.045C-13.79,0.531,-13.679,-0.366,-12.651,-0.96C-12.651,-0.96,-1.663,-7.304,-1.663,-7.304C-0.635,-7.898,0.921,-7.962,1.811,-7.448C1.811,-7.448,12.9,-1.045,12.9,-1.045C13.79,-0.531,13.678,0.366,12.65,0.96C12.65,0.96,1.663,7.304,1.663,7.304C0.635,7.898,-0.921,7.962,-1.811,7.448Z" /></g><g id="i75" transform="matrix(1,0,0,1,525.914,578.536)"><path fill="#a1adb7" d="M-1.811,7.448C-1.811,7.448,-12.9,1.045,-12.9,1.045C-13.79,0.531,-13.679,-0.366,-12.651,-0.96C-12.651,-0.96,-1.663,-7.304,-1.663,-7.304C-0.635,-7.898,0.921,-7.962,1.811,-7.448C1.811,-7.448,12.9,-1.045,12.9,-1.045C13.79,-0.531,13.679,0.366,12.651,0.96C12.651,0.96,1.663,7.304,1.663,7.304C0.635,7.898,-0.921,7.962,-1.811,7.448Z" /></g><g id="i76" transform="matrix(1,0,0,1,543.039,588.424)"><path fill="#a1adb7" d="M-1.811,7.448C-1.811,7.448,-12.9,1.045,-12.9,1.045C-13.79,0.531,-13.678,-0.366,-12.65,-0.96C-12.65,-0.96,-1.663,-7.304,-1.663,-7.304C-0.635,-7.898,0.921,-7.962,1.811,-7.448C1.811,-7.448,12.9,-1.045,12.9,-1.045C13.79,-0.531,13.679,0.366,12.651,0.96C12.651,0.96,1.663,7.304,1.663,7.304C0.635,7.898,-0.921,7.962,-1.811,7.448Z" /></g><g id="i77" transform="matrix(1,0,0,1,560.165,598.311)"><path fill="#a1adb7" d="M-1.811,7.448C-1.811,7.448,-12.9,1.045,-12.9,1.045C-13.79,0.531,-13.679,-0.366,-12.651,-0.96C-12.651,-0.96,-1.663,-7.304,-1.663,-7.304C-0.635,-7.898,0.921,-7.962,1.811,-7.448C1.811,-7.448,12.9,-1.045,12.9,-1.045C13.79,-0.531,13.678,0.366,12.65,0.96C12.65,0.96,1.663,7.304,1.663,7.304C0.635,7.898,-0.921,7.962,-1.811,7.448Z" /></g><g id="i5" transform="matrix(1,0,0,1,577.29,608.198)"><path fill="#a1adb7" d="M-1.811,7.448C-1.811,7.448,-12.9,1.045,-12.9,1.045C-13.79,0.531,-13.678,-0.366,-12.65,-0.96C-12.65,-0.96,-1.663,-7.304,-1.663,-7.304C-0.635,-7.898,0.92,-7.962,1.811,-7.448C1.811,-7.448,12.9,-1.046,12.9,-1.046C13.79,-0.532,13.679,0.366,12.651,0.96C12.651,0.96,1.663,7.304,1.663,7.304C0.635,7.898,-0.921,7.962,-1.811,7.448Z" /></g><g id="i6" transform="matrix(1,0,0,1,594.415,618.085)"><path fill="#a1adb7" d="M-1.811,7.448C-1.811,7.448,-12.9,1.045,-12.9,1.045C-13.79,0.531,-13.679,-0.366,-12.651,-0.96C-12.651,-0.96,-1.663,-7.304,-1.663,-7.304C-0.635,-7.898,0.921,-7.962,1.811,-7.448C1.811,-7.448,12.9,-1.046,12.9,-1.046C13.79,-0.532,13.678,0.366,12.65,0.96C12.65,0.96,1.663,7.304,1.663,7.304C0.635,7.898,-0.921,7.962,-1.811,7.448Z" /></g><g id="i7" transform="matrix(1,0,0,1,611.54,627.972)"><path fill="#a1adb7" d="M-1.811,7.448C-1.811,7.448,-12.9,1.045,-12.9,1.045C-13.79,0.531,-13.679,-0.366,-12.651,-0.96C-12.651,-0.96,-1.663,-7.304,-1.663,-7.304C-0.635,-7.898,0.921,-7.962,1.811,-7.448C1.811,-7.448,12.9,-1.046,12.9,-1.046C13.79,-0.532,13.679,0.366,12.651,0.96C12.651,0.96,1.663,7.304,1.663,7.304C0.635,7.898,-0.921,7.962,-1.811,7.448Z" /></g><g id="i8" transform="matrix(1,0,0,1,628.665,637.859)"><path fill="#a1adb7" d="M-1.811,7.448C-1.811,7.448,-12.9,1.045,-12.9,1.045C-13.79,0.531,-13.678,-0.366,-12.65,-0.96C-12.65,-0.96,-1.663,-7.304,-1.663,-7.304C-0.635,-7.898,0.921,-7.962,1.811,-7.448C1.811,-7.448,12.9,-1.046,12.9,-1.046C13.79,-0.532,13.679,0.366,12.651,0.96C12.651,0.96,1.663,7.304,1.663,7.304C0.635,7.898,-0.921,7.962,-1.811,7.448Z" /></g><g id="i9" transform="matrix(1,0,0,1,645.79,647.747)"><path fill="#a1adb7" d="M-1.811,7.448C-1.811,7.448,-12.9,1.045,-12.9,1.045C-13.791,0.531,-13.679,-0.366,-12.651,-0.96C-12.651,-0.96,-1.663,-7.304,-1.663,-7.304C-0.635,-7.898,0.921,-7.962,1.811,-7.448C1.811,-7.448,12.9,-1.046,12.9,-1.046C13.79,-0.532,13.678,0.366,12.65,0.96C12.65,0.96,1.663,7.304,1.663,7.304C0.635,7.898,-0.921,7.962,-1.811,7.448Z" /></g><g id="i10" transform="matrix(1,0,0,1,400.098,563.643)"><path fill="#a1adb7" d="M8.974,13.674C8.974,13.674,-23.685,-5.181,-23.685,-5.181C-24.575,-5.695,-24.463,-6.593,-23.435,-7.187C-23.435,-7.187,-12.448,-13.53,-12.448,-13.53C-11.42,-14.124,-9.864,-14.188,-8.974,-13.674C-8.974,-13.674,23.685,5.181,23.685,5.181C24.575,5.695,24.463,6.593,23.435,7.187C23.435,7.187,12.448,13.531,12.448,13.531C11.42,14.125,9.864,14.188,8.974,13.674Z" /></g><g id="i11" transform="matrix(1,0,0,1,610.483,685.11)"><path fill="#a1adb7" d="M8.974,13.675C8.974,13.675,-23.685,-5.181,-23.685,-5.181C-24.575,-5.695,-24.464,-6.593,-23.436,-7.187C-23.436,-7.187,-12.448,-13.53,-12.448,-13.53C-11.42,-14.124,-9.864,-14.189,-8.974,-13.675C-8.974,-13.675,23.685,5.181,23.685,5.181C24.575,5.695,24.464,6.593,23.436,7.187C23.436,7.187,12.448,13.53,12.448,13.53C11.42,14.124,9.864,14.189,8.974,13.675Z" /></g><g id="i12" transform="matrix(1,0,0,1,553.833,673.029)"><path fill="#a1adb7" d="M-2.861,8.055C-2.861,8.055,-13.951,1.652,-13.951,1.652C-14.841,1.138,-14.729,0.24,-13.701,-0.354C-13.701,-0.354,-0.612,-7.911,-0.612,-7.911C0.416,-8.505,1.971,-8.568,2.861,-8.054C2.861,-8.054,13.951,-1.652,13.951,-1.652C14.841,-1.138,14.729,-0.24,13.701,0.354C13.701,0.354,0.612,7.91,0.612,7.91C-0.416,8.504,-1.971,8.569,-2.861,8.055Z" /></g><g id="i13" transform="matrix(1,0,0,1,426.148,599.31)"><path fill="#a1adb7" d="M0.461,9.973C0.461,9.973,-17.273,-0.266,-17.273,-0.266C-18.163,-0.78,-18.052,-1.678,-17.024,-2.272C-17.024,-2.272,-3.935,-9.829,-3.935,-9.829C-2.907,-10.423,-1.351,-10.487,-0.461,-9.973C-0.461,-9.973,17.273,0.266,17.273,0.266C18.163,0.78,18.052,1.678,17.024,2.272C17.024,2.272,3.935,9.829,3.935,9.829C2.907,10.423,1.351,10.487,0.461,9.973Z" /></g><g id="i14" transform="matrix(1,0,0,1,534.01,661.584)"><path fill="#a1adb7" d="M0.461,9.973C0.461,9.973,-17.273,-0.266,-17.273,-0.266C-18.164,-0.78,-18.052,-1.678,-17.024,-2.272C-17.024,-2.272,-3.935,-9.829,-3.935,-9.829C-2.907,-10.423,-1.351,-10.487,-0.461,-9.973C-0.461,-9.973,17.273,0.266,17.273,0.266C18.164,0.78,18.052,1.678,17.024,2.272C17.024,2.272,3.935,9.829,3.935,9.829C2.907,10.423,1.351,10.487,0.461,9.973Z" /></g><g id="i15" transform="matrix(1,0,0,1,450.856,613.575)"><path fill="#a1adb7" d="M0.461,9.973C0.461,9.973,-17.273,-0.266,-17.273,-0.266C-18.163,-0.78,-18.052,-1.678,-17.024,-2.272C-17.024,-2.272,-3.935,-9.829,-3.935,-9.829C-2.907,-10.423,-1.351,-10.487,-0.461,-9.973C-0.461,-9.973,17.273,0.266,17.273,0.266C18.163,0.78,18.052,1.678,17.024,2.272C17.024,2.272,3.935,9.829,3.935,9.829C2.907,10.423,1.351,10.487,0.461,9.973Z" /></g><g id="i16" transform="matrix(1,0,0,1,481.02,630.99)"><path fill="#a1adb7" d="M-30.505,-27.319C-30.505,-27.319,46.6,17.198,46.6,17.198C47.557,17.75,47.557,18.646,46.6,19.198C46.6,19.198,33.252,26.905,33.252,26.905C32.295,27.457,30.745,27.457,29.788,26.905C29.788,26.905,-47.318,-17.613,-47.318,-17.613C-47.318,-17.613,-30.505,-27.319,-30.505,-27.319Z" /></g><g id="i17" transform="matrix(1,0,0,1,600.807,705.003)"><path fill="#a1adb7" d="M-1.973,-5.992C-1.973,-5.992,10.379,1.139,10.379,1.139C11.109,1.56,11.018,2.297,10.175,2.783C10.175,2.783,4.821,5.874,4.821,5.874C3.978,6.36,2.703,6.413,1.973,5.992C1.973,5.992,-10.379,-1.139,-10.379,-1.139C-11.109,-1.56,-11.018,-2.296,-10.175,-2.783C-10.175,-2.783,-4.82,-5.874,-4.82,-5.874C-3.977,-6.36,-2.703,-6.413,-1.973,-5.992Z" /></g><g id="i18" transform="matrix(1,0,0,1,583.54,695.033)"><path fill="#a1adb7" d="M-1.973,-5.992C-1.973,-5.992,10.379,1.139,10.379,1.139C11.109,1.56,11.018,2.296,10.175,2.783C10.175,2.783,4.82,5.874,4.82,5.874C3.977,6.36,2.703,6.413,1.973,5.992C1.973,5.992,-10.379,-1.139,-10.379,-1.139C-11.109,-1.56,-11.018,-2.297,-10.175,-2.783C-10.175,-2.783,-4.82,-5.874,-4.82,-5.874C-3.977,-6.36,-2.703,-6.413,-1.973,-5.992Z" /></g><g id="i19" transform="matrix(1,0,0,1,566.415,685.146)"><path fill="#a1adb7" d="M-1.973,-5.992C-1.973,-5.992,10.379,1.139,10.379,1.139C11.108,1.56,11.018,2.297,10.175,2.783C10.175,2.783,4.82,5.874,4.82,5.874C3.977,6.36,2.703,6.413,1.973,5.992C1.973,5.992,-10.379,-1.139,-10.379,-1.139C-11.109,-1.56,-11.018,-2.297,-10.175,-2.783C-10.175,-2.783,-4.821,-5.874,-4.821,-5.874C-3.978,-6.36,-2.703,-6.413,-1.973,-5.992Z" /></g><g id="i1" transform="matrix(1,0,0,1,592.997,689.573)"><path fill="#a1adb7" d="M-1.973,-5.992C-1.973,-5.992,10.379,1.139,10.379,1.139C11.109,1.56,11.018,2.297,10.175,2.783C10.175,2.783,4.82,5.874,4.82,5.874C3.977,6.36,2.703,6.413,1.973,5.992C1.973,5.992,-10.379,-1.139,-10.379,-1.139C-11.109,-1.56,-11.018,-2.297,-10.175,-2.783C-10.175,-2.783,-4.82,-5.874,-4.82,-5.874C-3.977,-6.36,-2.703,-6.413,-1.973,-5.992Z" /></g></g><g id="i1" transform="matrix(1,0,0,1,0,0)"><g id="i17" transform="matrix(1,0,0,1,543.269,374.04)"><path fill="#d9e0e6" d="M13.333,11.039C13.333,11.039,-14.52,-5.042,-14.52,-5.042C-14.52,-5.042,-13.333,-11.039,-13.333,-11.039C-13.333,-11.039,14.52,5.042,14.52,5.042C14.52,5.042,13.333,11.039,13.333,11.039Z" /></g><g id="i18" transform="matrix(1,0,0,1,540.246,387.977)"><path fill="#ffffff" d="M13.333,11.039C13.333,11.039,-14.52,-5.042,-14.52,-5.042C-14.52,-5.042,-13.333,-11.039,-13.333,-11.039C-13.333,-11.039,14.52,5.042,14.52,5.042C14.52,5.042,13.333,11.039,13.333,11.039Z" /></g><g id="i19" transform="matrix(1,0,0,1,676.953,581.28)"><path fill="#d9e0e6" d="M13.333,11.039C13.333,11.039,-14.52,-5.042,-14.52,-5.042C-14.52,-5.042,-13.333,-11.039,-13.333,-11.039C-13.333,-11.039,14.52,5.042,14.52,5.042C14.52,5.042,13.333,11.039,13.333,11.039Z" /></g></g></g></g></g><g id="i78"><g transform="translate(698.313,405.042)"><animateTransform repeatCount="indefinite" type="translate" attributeName="transform" dur="5.042s" begin="0s" calcMode="spline" values="698.313 405.042; 698.313 382.162; 698.313 382.162; 698.313 405.042; 698.313 405.042; 698.313 382.162; 698.313 382.162; 698.313 405.042; 698.313 405.042" keyTimes="0; 0.165289; 0.247934; 0.413223; 0.495868; 0.661157; 0.743802; 0.909091; 1" keySplines="0.67 0 0.33 1; 0 0 1 1; 0.67 0 0.33 1; 0 0 1 1; 0.67 0 0.33 1; 0 0 1 1; 0.67 0 0.33 1; 0 0 1 1" fill="freeze" /><g transform="scale(1.43,1.43) translate(-613.371,-467.827)"><g><g id="i79" transform="translate(594.309,429.323)"><animateTransform repeatCount="indefinite" type="translate" attributeName="transform" dur="5.042s" begin="0s" calcMode="spline" values="594.309 429.323; 643.284 457.598; 643.284 457.598; 632.433 506.331; 632.433 506.331; 583.458 478.056; 583.458 478.056; 594.309 429.323; 594.309 429.323" keyTimes="0; 0.165289; 0.247934; 0.413223; 0.495868; 0.661157; 0.743802; 0.909091; 1" keySplines="0.67 0 0.33 1; 0 0 1 1; 0.67 0 0.33 1; 0 0 1 1; 0.67 0 0.33 1; 0 0 1 1; 0.67 0 0.33 1; 0 0 1 1" fill="freeze" /><path fill="#772eff" d="M9.795,27.163C9.795,27.163,-18.282,10.953,-18.282,10.953C-20.767,9.518,-22.249,5.963,-21.592,3.013C-21.592,3.013,-15.484,-24.419,-15.484,-24.419C-14.827,-27.369,-12.28,-28.598,-9.795,-27.163C-9.795,-27.163,18.282,-10.953,18.282,-10.953C20.767,-9.518,22.249,-5.963,21.592,-3.013C21.592,-3.013,15.484,24.419,15.484,24.419C14.827,27.369,12.28,28.598,9.795,27.163Z" /></g></g><g><g id="i80" transform="translate(643.284,457.598)"><animateTransform repeatCount="indefinite" type="translate" attributeName="transform" dur="5.042s" begin="0s" calcMode="spline" values="643.284 457.598; 632.433 506.331; 632.433 506.331; 583.458 478.056; 583.458 478.056; 594.309 429.323; 594.309 429.323; 643.284 457.598; 643.284 457.598" keyTimes="0; 0.165289; 0.247934; 0.413223; 0.495868; 0.661157; 0.743802; 0.909091; 1" keySplines="0.67 0 0.33 1; 0 0 1 1; 0.67 0 0.33 1; 0 0 1 1; 0.67 0 0.33 1; 0 0 1 1; 0.67 0 0.33 1; 0 0 1 1" fill="freeze" /><path fill="#b3dbff" d="M9.795,27.163C9.795,27.163,-18.282,10.953,-18.282,10.953C-20.767,9.518,-22.249,5.963,-21.592,3.013C-21.592,3.013,-15.484,-24.419,-15.484,-24.419C-14.827,-27.369,-12.28,-28.598,-9.795,-27.163C-9.795,-27.163,18.282,-10.953,18.282,-10.953C20.767,-9.518,22.249,-5.963,21.592,-3.013C21.592,-3.013,15.484,24.419,15.484,24.419C14.827,27.369,12.28,28.598,9.795,27.163Z" /></g></g><g><g id="i81" transform="translate(583.458,478.056)"><animateTransform repeatCount="indefinite" type="translate" attributeName="transform" dur="5.042s" begin="0s" calcMode="spline" values="583.458 478.056; 594.309 429.323; 594.309 429.323; 643.284 457.598; 643.284 457.598; 632.433 506.331; 632.433 506.331; 583.458 478.056; 583.458 478.056" keyTimes="0; 0.165289; 0.247934; 0.413223; 0.495868; 0.661157; 0.743802; 0.909091; 1" keySplines="0.67 0 0.33 1; 0 0 1 1; 0.67 0 0.33 1; 0 0 1 1; 0.67 0 0.33 1; 0 0 1 1; 0.67 0 0.33 1; 0 0 1 1" fill="freeze" /><path fill="#ffffff" d="M9.795,27.163C9.795,27.163,-18.282,10.953,-18.282,10.953C-20.767,9.518,-22.249,5.963,-21.592,3.013C-21.592,3.013,-15.484,-24.419,-15.484,-24.419C-14.827,-27.369,-12.28,-28.598,-9.795,-27.163C-9.795,-27.163,18.282,-10.953,18.282,-10.953C20.767,-9.518,22.249,-5.963,21.592,-3.013C21.592,-3.013,15.484,24.419,15.484,24.419C14.827,27.369,12.28,28.598,9.795,27.163Z" /></g></g><g><g id="i82" transform="translate(632.433,506.331)"><animateTransform repeatCount="indefinite" type="translate" attributeName="transform" dur="5.042s" begin="0s" calcMode="spline" values="632.433 506.331; 583.458 478.056; 583.458 478.056; 594.309 429.323; 594.309 429.323; 643.284 457.598; 643.284 457.598; 632.433 506.331; 632.433 506.331" keyTimes="0; 0.165289; 0.247934; 0.413223; 0.495868; 0.661157; 0.743802; 0.909091; 1" keySplines="0.67 0 0.33 1; 0 0 1 1; 0.67 0 0.33 1; 0 0 1 1; 0.67 0 0.33 1; 0 0 1 1; 0.67 0 0.33 1; 0 0 1 1" fill="freeze" /><path fill="#8746ff" d="M9.795,27.163C9.795,27.163,-18.282,10.953,-18.282,10.953C-20.767,9.518,-22.249,5.963,-21.592,3.013C-21.592,3.013,-15.484,-24.419,-15.484,-24.419C-14.827,-27.369,-12.28,-28.598,-9.795,-27.163C-9.795,-27.163,18.282,-10.953,18.282,-10.953C20.767,-9.518,22.249,-5.963,21.592,-3.013C21.592,-3.013,15.484,24.419,15.484,24.419C14.827,27.369,12.28,28.598,9.795,27.163Z" /></g></g></g></g></g></svg>